<svg xmlns="http://www.w3.org/2000/svg" xmlns:xlink="http://www.w3.org/1999/xlink" fill="none"
    version="1.1" width="18" height="18" viewBox="0 0 18 18">
    <defs>
        <clipPath id="master_svg0_63_30775">
            <rect x="0" y="0" width="18" height="18" rx="0" />
        </clipPath>
    </defs>
    <g clip-path="url(#master_svg0_63_30775)">
        <g>
            <path
                d="M15.38570390625,3.583333L2.33317390625,3.583333C2.2623339062500003,3.583333,2.19317390625,3.592083,2.12692390625,3.6091670000000002L8.449003906249999,9.93083C8.61171390625,10.09349,8.87546390625,10.09349,9.03817390625,9.93083L15.38570390625,3.583333ZM16.28690390625,3.86042L11.19520390625,8.952079999999999L16.33070390625,14.0871C16.436903906250002,13.9471,16.49980390625,13.7725,16.49980390625,13.5833L16.49980390625,4.41667C16.49980390625,4.20292,16.41940390625,4.00833,16.28730390625,3.86042L16.28690390625,3.86042ZM15.48150390625,14.4167L10.60650390625,9.54125L9.62733390625,10.52042C9.13916390625,11.00867,8.347593906250001,11.00867,7.85942390625,10.52042L6.88067390625,9.54125L2.05400390625,14.3688C2.14150390625,14.3996,2.23525390625,14.4167,2.33358390625,14.4167L15.48190390625,14.4167L15.48150390625,14.4167ZM1.51275390625,13.7308L6.29150390625,8.95167L1.5306709062500001,4.19167C1.51018390625,4.26491,1.4998099062499999,4.34061,1.49983690625,4.41667L1.49983690625,13.5833C1.49983690625,13.6333,1.50400390625,13.6829,1.51275390625,13.7308ZM2.33317390625,2.75L15.66650390625,2.75C16.58700390625,2.75,17.33320390625,3.4961919999999997,17.33320390625,4.41667L17.33320390625,13.5833C17.33320390625,14.5038,16.58700390625,15.25,15.66650390625,15.25L2.33317390625,15.25C1.41269590625,15.25,0.66650390625,14.5038,0.66650390625,13.5833L0.66650390625,4.41667C0.666503757238,3.4961919999999997,1.41269590625,2.75,2.33317390625,2.75Z"
                fill="#BF62FF" fill-opacity="1" />
        </g>
    </g>
</svg>