<svg xmlns="http://www.w3.org/2000/svg" xmlns:xlink="http://www.w3.org/1999/xlink" fill="none"
    version="1.1" width="8" height="14.9998779296875" viewBox="0 0 8 14.9998779296875">
    <g
        transform="matrix(1,-4.2146844236867764e-8,4.2146844236867764e-8,-1,-6.32223243066804e-7,30.0009765625)">
        <path
            d="M7.86661,15.84526928125C8.04444,16.03838828125,8.04444,16.35149828125,7.86661,16.54462828125L2.37623,22.507098281250002L7.85544,28.45748828125C8.03327,28.650588281250002,8.03327,28.96368828125,7.85544,29.15678828125L7.21146,29.85618828125C7.03363,30.04928828125,6.74531,30.04928828125,6.56748,29.85618828125L0.141451,22.87757828125C0.0788841,22.80962828125,0.0383307,22.72684828125,0.0197859,22.63965828125C-0.0276793,22.47051828125,0.0101683,22.27919828125,0.133367,22.14540828125L6.57865,15.14591428125C6.75648,14.95279248125,7.0448,14.95279398125,7.22263,15.14591328125L7.86661,15.84526928125Z"
            fill-rule="evenodd" fill="#1D2129" fill-opacity="1" />
    </g>
</svg>