<svg xmlns="http://www.w3.org/2000/svg" xmlns:xlink="http://www.w3.org/1999/xlink" fill="none"
    version="1.1" width="18" height="18" viewBox="0 0 18 18">
    <defs>
        <clipPath id="master_svg0_63_30782">
            <rect x="0" y="0" width="18" height="18" rx="0" />
        </clipPath>
    </defs>
    <g clip-path="url(#master_svg0_63_30782)">
        <g>
            <path
                d="M11.386877785644531,14.8604744140625C10.049997785644532,14.4344744140625,8.622747785644531,13.5198744140625,7.151997785644531,11.9838744140625C5.7254977856445315,10.493994414062499,4.838247785644532,9.085864414062499,4.383377785644531,7.7924944140625C4.087501785644531,6.9517444140625,4.013251785644531,6.2887444140625,4.056751785644531,5.8342444140625C4.058399785644531,5.8153044140625,4.060651785644531,5.7964144140625,4.063501785644531,5.7776144140625L4.0695017856445315,5.7187444140625C4.077751785644531,5.4003644140625,4.261501785644532,4.9076144140625,4.458377785644531,4.6769944140625C4.646027785644531,4.4331544140625,4.848937785644531,4.2014444140625,5.065877785644531,3.9832444140625C5.238747785644531,3.8096144140624997,5.405247785644532,3.6644944140625,5.557127785644531,3.5579944140625C5.783627785644532,3.3989944140625,5.929127785644532,3.3588694140625,5.966997785644532,3.3809944140625C5.963247785644532,3.3813694140625,5.985377785644531,3.4042444140625,6.016877785644532,3.4473694140625C6.072377785644531,3.5227444140625,6.141377785644531,3.6322444140625,6.221997785644531,3.7709944140625C6.4151077856445315,4.1122444140625,6.597077785644531,4.4596844140625,6.767627785644532,4.8127444140625C7.124397785644531,5.5454444140625,7.466467785644531,6.2852244140625,7.7936277856445315,7.0316144140625C7.823627785644531,7.0991144140625,7.810127785644531,7.2479944140625,7.769997785644531,7.3079944140625L6.943127785644531,8.5353644140625C6.917007785644531,8.5756844140625,6.897037785644532,8.6196644140625,6.883877785644531,8.6658644140625C6.751877785644531,9.1214944140625,7.100247785644531,9.835114414062499,8.181747785644532,10.9372444140625C8.840997785644532,11.6084944140625,9.41737778564453,12.0457444140625,9.91312778564453,12.2921244140625C10.246127785644532,12.4578744140625,10.498127785644531,12.5171144140625,10.66424778564453,12.5133744140625C10.742997785644532,12.5099944140625,10.809377785644532,12.4878744140625,10.866747785644531,12.4496144140625L12.089247785644531,11.6246244140625C12.152247785644532,11.5822444140625,12.30749778564453,11.5657444140625,12.379877785644531,11.5949944140625L12.532877785644532,11.6561244140625C13.072357785644531,11.8731144140625,13.608417785644532,12.0985144140625,14.14091778564453,12.3322444140625C14.264617785644532,12.3869944140625,14.383517785644532,12.4402444140625,14.497117785644532,12.4919944140625C14.87961778564453,12.6670744140625,15.193917785644532,12.8219744140625,15.42221778564453,12.9487744140625C15.541517785644531,13.0154744140625,15.634517785644531,13.0728744140625,15.696017785644532,13.1182744140625C15.721117785644532,13.1369744140625,15.738717785644532,13.1512744140625,15.74701778564453,13.1594744140625C15.729217785644531,13.1392744140625,15.716117785644531,13.1154744140625,15.708417785644532,13.0897744140625L15.734217785644532,13.1459744140625C15.813717785644531,13.2877744140625,15.438017785644531,13.8160744140625,14.827917785644532,14.3538744140625C14.709717785644532,14.4580744140625,14.589317785644532,14.5596744140625,14.466717785644532,14.6587744140625C14.296817785644532,14.7848744140625,14.264817785644532,15.0264744140625,14.396117785644531,15.1924744140625C14.52731778564453,15.3584744140625,14.769917785644532,15.3830744140625,14.931717785644532,15.2467744140625C15.06471778564453,15.1394744140625,15.195417785644532,15.0293744140625,15.323617785644531,14.9163744140625C16.24611778564453,14.1025744140625,16.741517785644533,13.4069744140625,16.387917785644532,12.7780744140625L16.41371778564453,12.8343744140625C16.30761778564453,12.5418744140625,15.846417785644531,12.2846244140625,14.80871778564453,11.8102444140625C14.692517785644531,11.7566244140625,14.570617785644531,11.7022444140625,14.44421778564453,11.6463644140625C13.85371778564453,11.3857444140625,13.258217785644531,11.1364444140625,12.658127785644531,10.8986144140625C12.35737778564453,10.7771244140625,11.93962778564453,10.8209944140625,11.669627785644531,11.0028644140625L10.44712778564453,11.8278644140625L10.639127785644531,11.7641244140625C10.649247785644532,11.7637444140625,10.629377785644532,11.7614944140625,10.58662778564453,11.7513744140625C10.468987785644531,11.7206644140625,10.355147785644531,11.6768944140625,10.247247785644532,11.6208644140625C9.83099778564453,11.4138644140625,9.320997785644531,11.0268744140625,8.717247785644531,10.4118644140625C7.806747785644531,9.4844944140625,7.568997785644531,8.996994414062499,7.604247785644532,8.8747444140625C7.596427785644531,8.900084414062501,7.585067785644531,8.924204414062501,7.570497785644531,8.9463644140625L8.392127785644531,7.7268644140625C8.576247785644531,7.4531144140625,8.61337778564453,7.0319944140625,8.480247785644531,6.7297444140625L8.40749778564453,6.5651144140625C8.14548778564453,5.9742344140625,7.875207785644531,5.3870544140625,7.596747785644531,4.8037444140625C7.543497785644531,4.693114414062499,7.491747785644531,4.5854944140625005,7.440747785644532,4.4819944140625C6.895877785644531,3.3731184140625,6.587997785644531,2.8421184140625,6.311997785644531,2.7157438140625C5.979377785644531,2.5196188140625,5.569127785644531,2.6336188140625,5.126247785644531,2.9441184140625C4.934247785644532,3.0787434140625,4.736247785644531,3.2512434140625,4.5348777856445315,3.4533694140625C4.299007785644531,3.6905944140624998,4.0782007856445315,3.9423344140625,3.8737497856445313,4.2071144140625005C3.577499785644531,4.5536144140624994,3.332249585644531,5.2121144140624995,3.3198744856445312,5.6996144140625L3.3258745856445313,5.6407444140625C3.320999585644531,5.666994414062501,3.315374485644531,5.7074944140625,3.310124585644531,5.7629944140625C3.256499485644531,6.3236244140625,3.343124585644531,7.0957444140625,3.6761247856445314,8.0414944140625C4.167374785644531,9.438374414062501,5.111627785644531,10.9372444140625,6.610127785644531,12.5024944140625C8.165627785644531,14.1269744140625,9.699747785644531,15.1098744140625,11.158877785644531,15.5752744140625C11.647497785644532,15.7308744140625,12.106127785644532,15.8204744140625,12.529497785644532,15.8557744140625C12.73414778564453,15.8698744140625,12.912197785644532,15.7169744140625,12.929127785644532,15.5125744140625C12.94604778564453,15.3081744140625,12.795567785644531,15.1280744140625,12.59137778564453,15.1083744140625C12.18183778564453,15.0714744140625,11.777777785644531,14.9884744140625,11.386877785644531,14.8608744140625L11.386877785644531,14.8604744140625Z"
                fill="#333333" fill-opacity="1" />
        </g>
    </g>
</svg>