<svg xmlns="http://www.w3.org/2000/svg" xmlns:xlink="http://www.w3.org/1999/xlink" fill="none"
    version="1.1" width="15.848514556884766" height="16" viewBox="0 0 15.848514556884766 16">
    <g>
        <path
            d="M6.47238,12.9448C7.87795,12.9448,9.17411,12.4903,10.2347,11.7328C10.2347,11.7328,14.2241,15.7223,14.2241,15.7223C14.4092,15.9074,14.6534,16,14.9143,16C15.4613,16,15.8485,15.5791,15.8485,15.0405C15.8485,14.788,15.7644,14.544,15.5791,14.3671C15.5791,14.3671,11.615,10.3946,11.615,10.3946C12.4482,9.30036,12.9448,7.94529,12.9448,6.47238C12.9448,2.91215,10.0326,0,6.47238,0C2.92056,0,0,2.90373,0,6.47238C0,10.0326,2.91215,12.9448,6.47238,12.9448C6.47238,12.9448,6.47238,12.9448,6.47238,12.9448ZM6.47238,11.5476C3.69489,11.5476,1.39716,9.24986,1.39716,6.47238C1.39716,3.69489,3.69489,1.39716,6.47238,1.39716C9.24986,1.39716,11.5476,3.69489,11.5476,6.47238C11.5476,9.24986,9.24986,11.5476,6.47238,11.5476C6.47238,11.5476,6.47238,11.5476,6.47238,11.5476Z"
            fill="#3C3C43" fill-opacity="0.6000000238418579" />
    </g>
</svg>